<svg width="147" height="52" viewBox="0 0 147 52" fill="none" xmlns="http://www.w3.org/2000/svg">
<g clip-path="url(#clip0_976_1107)">
<path d="M59.2188 38.9223C59.2188 39.3954 59.0475 39.8033 58.7049 40.1458C58.3787 40.4721 57.979 40.6353 57.5059 40.6353H50.6541V38.9223H57.2612V35.4964H52.367C51.8939 35.4964 51.4861 35.3333 51.1435 35.007C50.8172 34.6644 50.6541 34.2566 50.6541 33.7835V30.3576C50.6541 29.8845 50.8172 29.4848 51.1435 29.1585C51.4861 28.816 51.8939 28.6447 52.367 28.6447H59.2188V30.3576H52.6118V33.7835H57.5059C57.979 33.7835 58.3787 33.9548 58.7049 34.2974C59.0475 34.6236 59.2188 35.0233 59.2188 35.4964V38.9223ZM73.2951 40.6353H71.3375V39.167L69.8693 40.6353H64.7304C64.2736 40.6353 63.874 40.464 63.5314 40.1214C63.1888 39.7788 63.0175 39.3791 63.0175 38.9223V30.3576C63.0175 29.9008 63.1888 29.5011 63.5314 29.1585C63.874 28.816 64.2736 28.6447 64.7304 28.6447H73.2951V30.3576H64.9751V38.9223H71.3375V35.4964H68.1563L69.8693 33.7835H73.2951V40.6353ZM87.3734 40.6353H85.4157V35.4964H79.0534V40.6353H77.0957V28.6447H79.0534V35.2517L80.5216 33.7835H85.4157V28.6447H87.3734V40.6353ZM99.8438 38.9223C99.8438 39.3954 99.6725 39.8033 99.3299 40.1458C99.0037 40.4721 98.604 40.6353 98.1309 40.6353H92.992C92.5189 40.6353 92.1111 40.4721 91.7685 40.1458C91.4422 39.8033 91.2791 39.3954 91.2791 38.9223V33.7835C91.2791 33.3104 91.4422 32.9107 91.7685 32.5844C92.1111 32.2418 92.5189 32.0705 92.992 32.0705H98.1309C98.604 32.0705 99.0037 32.2418 99.3299 32.5844C99.6725 32.9107 99.8438 33.3104 99.8438 33.7835V38.9223ZM98.1309 39.167V33.5388H92.992V39.167H98.1309ZM111.84 40.6353H110.127V39.4117L108.904 40.6353H104.988C104.515 40.6353 104.107 40.4721 103.765 40.1458C103.439 39.8033 103.275 39.3954 103.275 38.9223V32.0705H104.988V39.167H110.127V32.0705H111.84V40.6353ZM122.246 32.0705L120.753 33.5388H116.618V35.4964H120.044C120.517 35.4964 120.916 35.6677 121.243 36.0103C121.585 36.3366 121.756 36.7363 121.756 37.2094V38.9223C121.756 39.3954 121.585 39.8033 121.243 40.1458C120.916 40.4721 120.517 40.6353 120.044 40.6353H114.905V39.167H120.044V36.9647H116.618C116.145 36.9647 115.737 36.8015 115.394 36.4753C115.068 36.1327 114.905 35.7248 114.905 35.2517V33.7835C114.905 33.3104 115.068 32.9107 115.394 32.5844C115.737 32.2418 116.145 32.0705 116.618 32.0705H122.246ZM133.371 40.6353H126.52C126.047 40.6353 125.639 40.4721 125.296 40.1458C124.97 39.8033 124.807 39.3954 124.807 38.9223V33.7835C124.807 33.3104 124.97 32.9107 125.296 32.5844C125.639 32.2418 126.047 32.0705 126.52 32.0705H131.658C132.132 32.0705 132.531 32.2418 132.858 32.5844C133.2 32.9107 133.371 33.3104 133.371 33.7835V35.4964L131.658 37.2094H126.764L128.233 35.7411H131.658V33.5388H126.52V39.167H133.371V40.6353ZM143.036 32.0705L141.544 33.5388H137.408V35.4964H140.834C141.307 35.4964 141.707 35.6677 142.033 36.0103C142.376 36.3366 142.547 36.7363 142.547 37.2094V38.9223C142.547 39.3954 142.376 39.8033 142.033 40.1458C141.707 40.4721 141.307 40.6353 140.834 40.6353H135.695V39.167H140.834V36.9647H137.408C136.935 36.9647 136.527 36.8015 136.185 36.4753C135.858 36.1327 135.695 35.7248 135.695 35.2517V33.7835C135.695 33.3104 135.858 32.9107 136.185 32.5844C136.527 32.2418 136.935 32.0705 137.408 32.0705H143.036Z" fill="#00008B"/>
<path d="M52.0098 22.3528C51.4959 22.3528 51.031 22.2402 50.615 22.0151C50.2038 21.7851 49.8808 21.4719 49.6459 21.0754C49.411 20.6741 49.2935 20.2239 49.2935 19.7247C49.2935 19.2255 49.411 18.7776 49.6459 18.3812C49.8808 17.9799 50.2063 17.6667 50.6223 17.4415C51.0383 17.2115 51.5032 17.0965 52.0171 17.0965C52.4184 17.0965 52.7855 17.165 53.1183 17.3021C53.4511 17.4342 53.735 17.6324 53.9699 17.8967L53.4927 18.3592C53.1061 17.953 52.624 17.7499 52.0465 17.7499C51.6647 17.7499 51.3197 17.8355 51.0114 18.0068C50.703 18.1781 50.4608 18.4155 50.2846 18.7189C50.1133 19.0175 50.0277 19.3527 50.0277 19.7247C50.0277 20.0966 50.1133 20.4343 50.2846 20.7377C50.4608 21.0363 50.703 21.2712 51.0114 21.4425C51.3197 21.6138 51.6647 21.6994 52.0465 21.6994C52.6191 21.6994 53.1012 21.4939 53.4927 21.0828L53.9699 21.5453C53.735 21.8095 53.4486 22.0102 53.111 22.1472C52.7782 22.2843 52.4111 22.3528 52.0098 22.3528ZM56.478 18.3665C56.9723 18.3665 57.3639 18.5109 57.6526 18.7997C57.9463 19.0835 58.0931 19.502 58.0931 20.055V22.2941H57.3883V20.1358C57.3883 19.7589 57.2978 19.4751 57.1167 19.2842C56.9356 19.0933 56.6762 18.9979 56.3385 18.9979C55.9568 18.9979 55.6558 19.1104 55.4356 19.3356C55.2153 19.5558 55.1052 19.8739 55.1052 20.2899V22.2941H54.4005V16.8469H55.1052V18.9538C55.2521 18.7679 55.4429 18.6235 55.6778 18.5207C55.9177 18.4179 56.1844 18.3665 56.478 18.3665ZM60.5714 22.3381C60.1848 22.3381 59.8373 22.2525 59.529 22.0812C59.2206 21.9099 58.9784 21.675 58.8022 21.3764C58.6309 21.073 58.5453 20.7304 58.5453 20.3487C58.5453 19.9669 58.6309 19.6268 58.8022 19.3282C58.9784 19.0248 59.2206 18.7899 59.529 18.6235C59.8373 18.4522 60.1848 18.3665 60.5714 18.3665C60.9581 18.3665 61.3031 18.4522 61.6065 18.6235C61.9149 18.7899 62.1547 19.0248 62.326 19.3282C62.5022 19.6268 62.5902 19.9669 62.5902 20.3487C62.5902 20.7304 62.5022 21.073 62.326 21.3764C62.1547 21.675 61.9149 21.9099 61.6065 22.0812C61.3031 22.2525 60.9581 22.3381 60.5714 22.3381ZM60.5714 21.7215C60.821 21.7215 61.0437 21.6652 61.2395 21.5526C61.4401 21.4351 61.5967 21.2736 61.7093 21.0681C61.8219 20.8576 61.8782 20.6178 61.8782 20.3487C61.8782 20.0795 61.8219 19.8421 61.7093 19.6366C61.5967 19.4261 61.4401 19.2646 61.2395 19.152C61.0437 19.0395 60.821 18.9832 60.5714 18.9832C60.3218 18.9832 60.0967 19.0395 59.896 19.152C59.7003 19.2646 59.5437 19.4261 59.4262 19.6366C59.3136 19.8421 59.2574 20.0795 59.2574 20.3487C59.2574 20.6178 59.3136 20.8576 59.4262 21.0681C59.5437 21.2736 59.7003 21.4351 59.896 21.5526C60.0967 21.6652 60.3218 21.7215 60.5714 21.7215ZM66.5568 22.0665C66.4541 22.1546 66.3268 22.2231 66.1751 22.272C66.0234 22.3161 65.8668 22.3381 65.7053 22.3381C65.3137 22.3381 65.0103 22.2329 64.795 22.0224C64.5796 21.812 64.4719 21.511 64.4719 21.1195V17.5517H65.1767V18.4032H66.2926V18.9832H65.1767V21.0901C65.1767 21.3006 65.2281 21.4621 65.3309 21.5746C65.4385 21.6872 65.5902 21.7435 65.786 21.7435C66.0014 21.7435 66.1849 21.6823 66.3366 21.5599L66.5568 22.0665ZM68.9686 18.3665C69.4629 18.3665 69.8545 18.5109 70.1432 18.7997C70.4369 19.0835 70.5837 19.502 70.5837 20.055V22.2941H69.8789V20.1358C69.8789 19.7589 69.7884 19.4751 69.6073 19.2842C69.4262 19.0933 69.1668 18.9979 68.8292 18.9979C68.4474 18.9979 68.1464 19.1104 67.9262 19.3356C67.706 19.5558 67.5958 19.8739 67.5958 20.2899V22.2941H66.8911V16.8469H67.5958V18.9538C67.7427 18.7679 67.9335 18.6235 68.1684 18.5207C68.4083 18.4179 68.675 18.3665 68.9686 18.3665ZM75.0006 18.4032V22.2941H74.3326V21.7068C74.1906 21.9074 74.0022 22.064 73.7673 22.1766C73.5373 22.2843 73.2852 22.3381 73.0112 22.3381C72.4924 22.3381 72.0837 22.1962 71.7852 21.9123C71.4866 21.6236 71.3374 21.2002 71.3374 20.6423V18.4032H72.0421V20.5615C72.0421 20.9384 72.1327 21.2247 72.3137 21.4205C72.4948 21.6113 72.7542 21.7068 73.0919 21.7068C73.4639 21.7068 73.7575 21.5942 73.9729 21.3691C74.1882 21.1439 74.2959 20.8258 74.2959 20.4147V18.4032H75.0006ZM77.5829 21.7215C78.0479 21.7215 78.4223 21.5648 78.7061 21.2516L79.0879 21.7068C78.9166 21.9123 78.6988 22.0689 78.4345 22.1766C78.1751 22.2843 77.8839 22.3381 77.5609 22.3381C77.1498 22.3381 76.7852 22.2549 76.4671 22.0885C76.149 21.9172 75.9018 21.6799 75.7256 21.3764C75.5543 21.073 75.4687 20.7304 75.4687 20.3487C75.4687 19.9718 75.5519 19.6317 75.7183 19.3282C75.8896 19.0248 76.122 18.7899 76.4157 18.6235C76.7142 18.4522 77.0495 18.3665 77.4214 18.3665C77.7738 18.3665 78.0944 18.4473 78.3831 18.6088C78.6719 18.7654 78.9019 18.9881 79.0732 19.2768C79.2445 19.5656 79.3326 19.8984 79.3375 20.2752L76.2468 20.8772C76.3447 21.1464 76.5087 21.3544 76.7387 21.5012C76.9736 21.648 77.255 21.7215 77.5829 21.7215ZM77.4214 18.9612C77.1767 18.9612 76.9565 19.0175 76.7607 19.13C76.5699 19.2426 76.4206 19.4016 76.3129 19.6072C76.2052 19.8079 76.1514 20.0428 76.1514 20.3119V20.3854L78.6401 19.9155C78.5764 19.6317 78.4345 19.4016 78.2143 19.2255C77.994 19.0493 77.7298 18.9612 77.4214 18.9612ZM78.0675 17.838L77.3921 17.2727L76.7167 17.838H76.078L77.0544 16.8836H77.7298L78.7061 17.838H78.0675ZM82.963 22.3381C82.5666 22.3381 82.2117 22.2525 81.8985 22.0812C81.5902 21.9099 81.3479 21.675 81.1717 21.3764C80.9956 21.073 80.9075 20.7304 80.9075 20.3487C80.9075 19.9669 80.9956 19.6268 81.1717 19.3282C81.3479 19.0248 81.5902 18.7899 81.8985 18.6235C82.2117 18.4522 82.5666 18.3665 82.963 18.3665C83.3154 18.3665 83.6286 18.4375 83.9027 18.5794C84.1816 18.7214 84.397 18.9269 84.5487 19.1961L84.0128 19.5411C83.8904 19.3551 83.7387 19.2157 83.5576 19.1227C83.3765 19.0297 83.1759 18.9832 82.9556 18.9832C82.7012 18.9832 82.4711 19.0395 82.2656 19.152C82.0649 19.2646 81.9059 19.4261 81.7884 19.6366C81.6758 19.8421 81.6196 20.0795 81.6196 20.3487C81.6196 20.6227 81.6758 20.865 81.7884 21.0754C81.9059 21.281 82.0649 21.44 82.2656 21.5526C82.4711 21.6652 82.7012 21.7215 82.9556 21.7215C83.1759 21.7215 83.3765 21.675 83.5576 21.582C83.7387 21.489 83.8904 21.3495 84.0128 21.1635L84.5487 21.5012C84.397 21.7704 84.1816 21.9784 83.9027 22.1252C83.6286 22.2671 83.3154 22.3381 82.963 22.3381ZM88.5605 18.4032V22.2941H87.8851V21.6774C87.7285 21.8927 87.5302 22.0567 87.2904 22.1693C87.0506 22.2818 86.7863 22.3381 86.4976 22.3381C86.1207 22.3381 85.783 22.2549 85.4845 22.0885C85.186 21.9221 84.951 21.6896 84.7798 21.3911C84.6134 21.0877 84.5302 20.7402 84.5302 20.3487C84.5302 19.9571 84.6134 19.6121 84.7798 19.3135C84.951 19.015 85.186 18.7825 85.4845 18.6161C85.783 18.4497 86.1207 18.3665 86.4976 18.3665C86.7766 18.3665 87.0335 18.4204 87.2684 18.528C87.5033 18.6308 87.6991 18.785 87.8557 18.9905V18.4032H88.5605ZM86.5563 21.7215C86.801 21.7215 87.0237 21.6652 87.2244 21.5526C87.425 21.4351 87.5816 21.2736 87.6942 21.0681C87.8068 20.8576 87.863 20.6178 87.863 20.3487C87.863 20.0795 87.8068 19.8421 87.6942 19.6366C87.5816 19.4261 87.425 19.2646 87.2244 19.152C87.0237 19.0395 86.801 18.9832 86.5563 18.9832C86.3067 18.9832 86.0816 19.0395 85.8809 19.152C85.6852 19.2646 85.5286 19.4261 85.4111 19.6366C85.2985 19.8421 85.2422 20.0795 85.2422 20.3487C85.2422 20.6178 85.2985 20.8576 85.4111 21.0681C85.5286 21.2736 85.6852 21.4351 85.8809 21.5526C86.0816 21.6652 86.3067 21.7215 86.5563 21.7215ZM86.6811 17.882C86.3434 17.882 86.062 17.7915 85.8369 17.6104C85.6166 17.4293 85.5016 17.1871 85.4918 16.8836H85.969C85.9739 17.0598 86.0424 17.2017 86.1746 17.3094C86.3116 17.4171 86.4805 17.4709 86.6811 17.4709C86.8818 17.4709 87.0482 17.4171 87.1803 17.3094C87.3174 17.2017 87.3883 17.0598 87.3932 16.8836H87.8704C87.8606 17.1871 87.7431 17.4293 87.518 17.6104C87.2978 17.7915 87.0188 17.882 86.6811 17.882ZM91.4576 18.3665C91.9519 18.3665 92.3434 18.5109 92.6322 18.7997C92.9258 19.0835 93.0726 19.502 93.0726 20.055V22.2941H92.3679V20.1358C92.3679 19.7589 92.2774 19.4751 92.0963 19.2842C91.9152 19.0933 91.6558 18.9979 91.3181 18.9979C90.9364 18.9979 90.6354 19.1104 90.4151 19.3356C90.1949 19.5558 90.0848 19.8739 90.0848 20.2899V22.2941H89.38V18.4032H90.0554V18.9905C90.1974 18.7899 90.3882 18.6357 90.628 18.528C90.8727 18.4204 91.1493 18.3665 91.4576 18.3665ZM97.3982 18.3665C97.8925 18.3665 98.284 18.5109 98.5728 18.7997C98.8664 19.0835 99.0133 19.502 99.0133 20.055V22.2941H98.3085V20.1358C98.3085 19.7589 98.218 19.4751 98.0369 19.2842C97.8558 19.0933 97.5964 18.9979 97.2587 18.9979C96.877 18.9979 96.576 19.1104 96.3558 19.3356C96.1355 19.5558 96.0254 19.8739 96.0254 20.2899V22.2941H95.3207V16.8469H96.0254V18.9538C96.1722 18.7679 96.3631 18.6235 96.598 18.5207C96.8378 18.4179 97.1046 18.3665 97.3982 18.3665ZM101.492 22.3381C101.105 22.3381 100.757 22.2525 100.449 22.0812C100.141 21.9099 99.8986 21.675 99.7224 21.3764C99.5511 21.073 99.4654 20.7304 99.4654 20.3487C99.4654 19.9669 99.5511 19.6268 99.7224 19.3282C99.8986 19.0248 100.141 18.7899 100.449 18.6235C100.757 18.4522 101.105 18.3665 101.492 18.3665C101.878 18.3665 102.223 18.4522 102.527 18.6235C102.835 18.7899 103.075 19.0248 103.246 19.3282C103.422 19.6268 103.51 19.9669 103.51 20.3487C103.51 20.7304 103.422 21.073 103.246 21.3764C103.075 21.675 102.835 21.9099 102.527 22.0812C102.223 22.2525 101.878 22.3381 101.492 22.3381ZM101.492 21.7215C101.741 21.7215 101.964 21.6652 102.16 21.5526C102.36 21.4351 102.517 21.2736 102.629 21.0681C102.742 20.8576 102.798 20.6178 102.798 20.3487C102.798 20.0795 102.742 19.8421 102.629 19.6366C102.517 19.4261 102.36 19.2646 102.16 19.152C101.964 19.0395 101.741 18.9832 101.492 18.9832C101.242 18.9832 101.017 19.0395 100.816 19.152C100.62 19.2646 100.464 19.4261 100.346 19.6366C100.234 19.8421 100.178 20.0795 100.178 20.3487C100.178 20.6178 100.234 20.8576 100.346 21.0681C100.464 21.2736 100.62 21.4351 100.816 21.5526C101.017 21.6652 101.242 21.7215 101.492 21.7215ZM101.484 23.7329C101.381 23.7329 101.293 23.6987 101.22 23.6302C101.147 23.5616 101.11 23.4735 101.11 23.3659C101.11 23.2582 101.147 23.1677 101.22 23.0943C101.293 23.0208 101.381 22.9841 101.484 22.9841C101.587 22.9841 101.675 23.0208 101.749 23.0943C101.822 23.1677 101.859 23.2582 101.859 23.3659C101.859 23.4735 101.822 23.5616 101.749 23.6302C101.675 23.6987 101.587 23.7329 101.484 23.7329ZM102.16 17.838L101.484 17.2727L100.809 17.838H100.17L101.147 16.8836H101.822L102.798 17.838H102.16ZM109.29 22.3748L108.608 21.6921C108.152 22.1326 107.58 22.3528 106.89 22.3528C106.547 22.3528 106.239 22.2965 105.965 22.1839C105.691 22.0714 105.475 21.9148 105.319 21.7141C105.167 21.5086 105.091 21.2761 105.091 21.0167C105.091 20.7035 105.187 20.427 105.377 20.1871C105.573 19.9424 105.894 19.6928 106.339 19.4383C106.114 19.2132 105.955 19.0101 105.862 18.829C105.769 18.6479 105.722 18.4595 105.722 18.2638C105.722 17.9163 105.847 17.6373 106.097 17.4269C106.351 17.2164 106.689 17.1112 107.11 17.1112C107.501 17.1112 107.812 17.2066 108.042 17.3975C108.272 17.5884 108.387 17.8502 108.387 18.183C108.387 18.4424 108.302 18.6749 108.13 18.8804C107.964 19.086 107.685 19.3013 107.293 19.5264L108.564 20.7891C108.71 20.5102 108.816 20.1994 108.879 19.8568L109.444 20.0403C109.356 20.4906 109.207 20.8821 108.997 21.2149L109.687 21.905L109.29 22.3748ZM107.11 17.6251C106.88 17.6251 106.699 17.6838 106.567 17.8013C106.439 17.9138 106.376 18.0631 106.376 18.2491C106.376 18.3812 106.41 18.5085 106.479 18.6308C106.552 18.7532 106.692 18.9196 106.897 19.13C107.235 18.9391 107.467 18.7752 107.594 18.6382C107.727 18.5011 107.793 18.3519 107.793 18.1903C107.793 18.0191 107.732 17.882 107.609 17.7792C107.492 17.6765 107.325 17.6251 107.11 17.6251ZM106.934 21.7655C107.443 21.7655 107.861 21.604 108.189 21.281L106.728 19.8274C106.376 20.0232 106.129 20.2067 105.987 20.378C105.85 20.5444 105.781 20.7328 105.781 20.9433C105.781 21.188 105.886 21.3862 106.097 21.5379C106.312 21.6896 106.591 21.7655 106.934 21.7655ZM113.468 18.3665C113.845 18.3665 114.183 18.4497 114.481 18.6161C114.78 18.7825 115.012 19.015 115.179 19.3135C115.35 19.6121 115.436 19.9571 115.436 20.3487C115.436 20.7402 115.35 21.0877 115.179 21.3911C115.012 21.6896 114.78 21.9221 114.481 22.0885C114.183 22.2549 113.845 22.3381 113.468 22.3381C113.189 22.3381 112.932 22.2843 112.697 22.1766C112.467 22.0689 112.272 21.9123 112.11 21.7068V23.7183H111.405V18.4032H112.081V19.0199C112.237 18.8046 112.435 18.6431 112.675 18.5354C112.915 18.4228 113.179 18.3665 113.468 18.3665ZM113.409 21.7215C113.659 21.7215 113.882 21.6652 114.077 21.5526C114.278 21.4351 114.435 21.2736 114.547 21.0681C114.665 20.8576 114.723 20.6178 114.723 20.3487C114.723 20.0795 114.665 19.8421 114.547 19.6366C114.435 19.4261 114.278 19.2646 114.077 19.152C113.882 19.0395 113.659 18.9832 113.409 18.9832C113.165 18.9832 112.942 19.0419 112.741 19.1594C112.546 19.2719 112.389 19.431 112.272 19.6366C112.159 19.8421 112.103 20.0795 112.103 20.3487C112.103 20.6178 112.159 20.8576 112.272 21.0681C112.384 21.2736 112.541 21.4351 112.741 21.5526C112.942 21.6652 113.165 21.7215 113.409 21.7215ZM117.973 18.3665C118.467 18.3665 118.859 18.5109 119.148 18.7997C119.441 19.0835 119.588 19.502 119.588 20.055V22.2941H118.883V20.1358C118.883 19.7589 118.793 19.4751 118.612 19.2842C118.431 19.0933 118.171 18.9979 117.834 18.9979C117.452 18.9979 117.151 19.1104 116.931 19.3356C116.71 19.5558 116.6 19.8739 116.6 20.2899V22.2941H115.895V16.8469H116.6V18.9538C116.747 18.7679 116.938 18.6235 117.173 18.5207C117.413 18.4179 117.679 18.3665 117.973 18.3665ZM122.066 22.3381C121.68 22.3381 121.332 22.2525 121.024 22.0812C120.716 21.9099 120.473 21.675 120.297 21.3764C120.126 21.073 120.04 20.7304 120.04 20.3487C120.04 19.9669 120.126 19.6268 120.297 19.3282C120.473 19.0248 120.716 18.7899 121.024 18.6235C121.332 18.4522 121.68 18.3665 122.066 18.3665C122.453 18.3665 122.798 18.4522 123.102 18.6235C123.41 18.7899 123.65 19.0248 123.821 19.3282C123.997 19.6268 124.085 19.9669 124.085 20.3487C124.085 20.7304 123.997 21.073 123.821 21.3764C123.65 21.675 123.41 21.9099 123.102 22.0812C122.798 22.2525 122.453 22.3381 122.066 22.3381ZM122.066 21.7215C122.316 21.7215 122.539 21.6652 122.734 21.5526C122.935 21.4351 123.092 21.2736 123.204 21.0681C123.317 20.8576 123.373 20.6178 123.373 20.3487C123.373 20.0795 123.317 19.8421 123.204 19.6366C123.092 19.4261 122.935 19.2646 122.734 19.152C122.539 19.0395 122.316 18.9832 122.066 18.9832C121.817 18.9832 121.592 19.0395 121.391 19.152C121.195 19.2646 121.039 19.4261 120.921 19.6366C120.809 19.8421 120.752 20.0795 120.752 20.3487C120.752 20.6178 120.809 20.8576 120.921 21.0681C121.039 21.2736 121.195 21.4351 121.391 21.5526C121.592 21.6652 121.817 21.7215 122.066 21.7215ZM120.716 16.8836H121.611L122.61 17.838H121.949L120.716 16.8836ZM126.624 18.3665C127.118 18.3665 127.509 18.5109 127.798 18.7997C128.092 19.0835 128.239 19.502 128.239 20.055V22.2941H127.534V20.1358C127.534 19.7589 127.443 19.4751 127.262 19.2842C127.081 19.0933 126.822 18.9979 126.484 18.9979C126.102 18.9979 125.801 19.1104 125.581 19.3356C125.361 19.5558 125.251 19.8739 125.251 20.2899V22.2941H124.546V18.4032H125.221V18.9905C125.363 18.7899 125.554 18.6357 125.794 18.528C126.039 18.4204 126.315 18.3665 126.624 18.3665ZM132.772 18.4032V21.7655C132.772 22.4458 132.604 22.9474 132.266 23.2704C131.928 23.5983 131.424 23.7623 130.754 23.7623C130.387 23.7623 130.037 23.7109 129.704 23.6081C129.371 23.5103 129.102 23.3683 128.896 23.1823L129.234 22.6391C129.415 22.7957 129.638 22.9181 129.902 23.0062C130.171 23.0991 130.448 23.1456 130.732 23.1456C131.187 23.1456 131.522 23.038 131.737 22.8226C131.958 22.6073 132.068 22.2794 132.068 21.8389V21.5306C131.901 21.7312 131.696 21.883 131.451 21.9857C131.211 22.0836 130.949 22.1326 130.666 22.1326C130.294 22.1326 129.956 22.0543 129.652 21.8976C129.354 21.7361 129.119 21.5135 128.948 21.2296C128.776 20.9408 128.691 20.6129 128.691 20.2459C128.691 19.8788 128.776 19.5534 128.948 19.2695C129.119 18.9807 129.354 18.7581 129.652 18.6015C129.956 18.4448 130.294 18.3665 130.666 18.3665C130.959 18.3665 131.231 18.4204 131.48 18.528C131.735 18.6357 131.943 18.7948 132.104 19.0052V18.4032H132.772ZM130.746 21.5159C131.001 21.5159 131.228 21.4621 131.429 21.3544C131.635 21.2467 131.794 21.0975 131.906 20.9066C132.024 20.7108 132.082 20.4906 132.082 20.2459C132.082 19.869 131.958 19.5656 131.708 19.3356C131.458 19.1007 131.138 18.9832 130.746 18.9832C130.35 18.9832 130.027 19.1007 129.777 19.3356C129.528 19.5656 129.403 19.869 129.403 20.2459C129.403 20.4906 129.459 20.7108 129.572 20.9066C129.689 21.0975 129.848 21.2467 130.049 21.3544C130.254 21.4621 130.487 21.5159 130.746 21.5159ZM137.111 22.0665C137.008 22.1546 136.881 22.2231 136.729 22.272C136.578 22.3161 136.421 22.3381 136.259 22.3381C135.868 22.3381 135.564 22.2329 135.349 22.0224C135.134 21.812 135.026 21.511 135.026 21.1195V17.5517H135.731V18.4032H136.847V18.9832H135.731V21.0901C135.731 21.3006 135.782 21.4621 135.885 21.5746C135.993 21.6872 136.144 21.7435 136.34 21.7435C136.556 21.7435 136.739 21.6823 136.891 21.5599L137.111 22.0665ZM138.121 19.0566C138.243 18.8315 138.424 18.6602 138.664 18.5427C138.904 18.4253 139.195 18.3665 139.537 18.3665V19.0493C139.498 19.0444 139.444 19.0419 139.376 19.0419C138.994 19.0419 138.693 19.1569 138.473 19.387C138.258 19.6121 138.15 19.9351 138.15 20.356V22.2941H137.445V18.4032H138.121V19.0566ZM141.523 22.3381C141.136 22.3381 140.789 22.2525 140.48 22.0812C140.172 21.9099 139.93 21.675 139.754 21.3764C139.582 21.073 139.497 20.7304 139.497 20.3487C139.497 19.9669 139.582 19.6268 139.754 19.3282C139.93 19.0248 140.172 18.7899 140.48 18.6235C140.789 18.4522 141.136 18.3665 141.523 18.3665C141.909 18.3665 142.254 18.4522 142.558 18.6235C142.866 18.7899 143.106 19.0248 143.277 19.3282C143.454 19.6268 143.542 19.9669 143.542 20.3487C143.542 20.7304 143.454 21.073 143.277 21.3764C143.106 21.675 142.866 21.9099 142.558 22.0812C142.254 22.2525 141.909 22.3381 141.523 22.3381ZM141.523 21.7215C141.772 21.7215 141.995 21.6652 142.191 21.5526C142.392 21.4351 142.548 21.2736 142.661 21.0681C142.773 20.8576 142.83 20.6178 142.83 20.3487C142.83 20.0795 142.773 19.8421 142.661 19.6366C142.548 19.4261 142.392 19.2646 142.191 19.152C141.995 19.0395 141.772 18.9832 141.523 18.9832C141.273 18.9832 141.048 19.0395 140.847 19.152C140.652 19.2646 140.495 19.4261 140.378 19.6366C140.265 19.8421 140.209 20.0795 140.209 20.3487C140.209 20.6178 140.265 20.8576 140.378 21.0681C140.495 21.2736 140.652 21.4351 140.847 21.5526C141.048 21.6652 141.273 21.7215 141.523 21.7215ZM141.515 23.7329C141.413 23.7329 141.325 23.6987 141.251 23.6302C141.178 23.5616 141.141 23.4735 141.141 23.3659C141.141 23.2582 141.178 23.1677 141.251 23.0943C141.325 23.0208 141.413 22.9841 141.515 22.9841C141.618 22.9841 141.706 23.0208 141.78 23.0943C141.853 23.1677 141.89 23.2582 141.89 23.3659C141.89 23.4735 141.853 23.5616 141.78 23.6302C141.706 23.6987 141.618 23.7329 141.515 23.7329Z" fill="#FF5C00"/>
<path d="M24.3006 0.611816L29.0788 4.42619V2.519V1.42918H31.4828V1.15673H29.0788V0.611816H31.4828V5.98307L33.8571 8.24056L36.6984 5.98307L45.884 13.2226H44.4439L36.6984 7.15074L34.5966 8.78547L40.2792 13.2226H35.9839L24.3006 4.04757L22.4392 9.09685L23.871 7.75662V9.79745H24.7587V7.75662L26.2191 9.05793V9.79745H22.4392V10.537H23.871V12.8712H24.7587V10.537H26.2191V12.8712H22.4392V9.09685L24.3006 4.04757L12.789 13.2226H8.20735L14.1624 8.78547L12.0606 7.15074L4.04268 13.2226H2.52472L12.0606 5.98307L14.8241 8.24056L24.3006 0.611816Z" fill="#FF5C00"/>
<path d="M2.44705 15.4799H23.0758V20.2284H7.15663V24.9769L23.0758 34.0457V52.6116L2.44705 40.8182V35.4858L18.483 44.7104V36.7314L2.44705 27.5457V15.4799Z" fill="#00008B"/>
<path d="M25.3333 15.4799H46.1177V20.2284H30.0429V44.8272L41.5249 37.9379V31.4769L34.6357 35.4858V30.1535L46.1177 23.4978V40.7403L25.3333 52.6116V15.4799Z" fill="#00008B"/>
</g>
<defs>
<clipPath id="clip0_976_1107">
<rect width="146.824" height="52" fill="white"/>
</clipPath>
</defs>
</svg>
